# xmcd CD database file
#
# Track frame offsets:
#	150
#	9487
#	22285
#	32987
#	42092
#	53185
#	62880
#	73400
#	82785
#	94342
#	105487
#	118195
#	129337
#	139755
#	152092
#
# Disc length: 2200 seconds
#
# Revision: 0
# Processed by: cddbd v1.4PL0 Copyright (c) Steve Scherf et al.
# Submitted via: CDex 1.50beta9
#
DISCID=d008960f
DTITLE=Young, Faron - It's four in the morning
DYEAR=1900
DGENRE=Country
TTITLE0=Hello Walls
TTITLE1=It's four in the morning
TTITLE2=Memphis
TTITLE3=Heartache for a keepsake
TTITLE4=Live Fast, Love hard, Die Young
TTITLE5=Alone With You
TTITLE6=Face to the wall
TTITLE7=Some of your memories
TTITLE8=Unmitigated Gall
TTITLE9=Goin Steady
TTITLE10=Three days
TTITLE11=Cryin' Time
TTITLE12=I could never be ashamed of you
TTITLE13=Country Girl
TTITLE14=Apartment #9
EXTD=
EXTT0=
EXTT1=
EXTT2=
EXTT3=
EXTT4=
EXTT5=
EXTT6=
EXTT7=
EXTT8=
EXTT9=
EXTT10=
EXTT11=
EXTT12=
EXTT13=
EXTT14=
PLAYORDER=
